G04 #@! TF.FileFunction,Profile,NP*
%FSLAX46Y46*%
G04 Gerber Fmt 4.6, Leading zero omitted, Abs format (unit mm)*
G04 Created by KiCad (PCBNEW 4.0.2+dfsg1-stable) date ma  8. lokakuuta 2018 00.44.36*
%MOMM*%
G01*
G04 APERTURE LIST*
%ADD10C,0.100000*%
G04 APERTURE END LIST*
D10*
X52560261Y-47403601D02*
X52560261Y-47403601D01*
X52443236Y-46823953D02*
X52560261Y-47403601D01*
X52124097Y-46350606D02*
X52443236Y-46823953D01*
X51650750Y-46031466D02*
X52124097Y-46350606D01*
X51071101Y-45914441D02*
X51650750Y-46031466D01*
X50491453Y-46031466D02*
X51071101Y-45914441D01*
X50018106Y-46350606D02*
X50491453Y-46031466D01*
X49698966Y-46823953D02*
X50018106Y-46350606D01*
X49581941Y-47403601D02*
X49698966Y-46823953D01*
X49698966Y-47983250D02*
X49581941Y-47403601D01*
X50018106Y-48456597D02*
X49698966Y-47983250D01*
X50491453Y-48775736D02*
X50018106Y-48456597D01*
X51071101Y-48892761D02*
X50491453Y-48775736D01*
X51650750Y-48775736D02*
X51071101Y-48892761D01*
X52124096Y-48456596D02*
X51650750Y-48775736D01*
X52443236Y-47983250D02*
X52124096Y-48456596D01*
X52560261Y-47403601D02*
X52443236Y-47983250D01*
X26571091Y-47417715D02*
X26571091Y-47417715D01*
X26697509Y-44914174D02*
X26571091Y-47417715D01*
X27068558Y-42482953D02*
X26697509Y-44914174D01*
X27671929Y-40136358D02*
X27068558Y-42482953D01*
X28495314Y-37886699D02*
X27671929Y-40136358D01*
X29526407Y-35746282D02*
X28495314Y-37886699D01*
X30752898Y-33727417D02*
X29526407Y-35746282D01*
X32162480Y-31842411D02*
X30752898Y-33727417D01*
X33742844Y-30103571D02*
X32162480Y-31842411D01*
X35481684Y-28523206D02*
X33742844Y-30103571D01*
X37366691Y-27113624D02*
X35481684Y-28523206D01*
X39385556Y-25887133D02*
X37366691Y-27113624D01*
X41525973Y-24856041D02*
X39385556Y-25887133D01*
X43775632Y-24032655D02*
X41525973Y-24856041D01*
X46122226Y-23429284D02*
X43775632Y-24032655D01*
X48553448Y-23058235D02*
X46122226Y-23429284D01*
X51056989Y-22931817D02*
X48553448Y-23058235D01*
X53560530Y-23058236D02*
X51056989Y-22931817D01*
X55991751Y-23429284D02*
X53560530Y-23058236D01*
X58338347Y-24032655D02*
X55991751Y-23429284D01*
X60588005Y-24856041D02*
X58338347Y-24032655D01*
X62728423Y-25887133D02*
X60588005Y-24856041D01*
X64747289Y-27113624D02*
X62728423Y-25887133D01*
X66632293Y-28523206D02*
X64747289Y-27113624D01*
X68371135Y-30103571D02*
X66632293Y-28523206D01*
X69951498Y-31842411D02*
X68371135Y-30103571D01*
X71361079Y-33727417D02*
X69951498Y-31842411D01*
X72587572Y-35746282D02*
X71361079Y-33727417D01*
X73618665Y-37886699D02*
X72587572Y-35746282D01*
X74442048Y-40136358D02*
X73618665Y-37886699D01*
X75045420Y-42482953D02*
X74442048Y-40136358D01*
X75416468Y-44914174D02*
X75045420Y-42482953D01*
X75542887Y-47417715D02*
X75416468Y-44914174D01*
X75416468Y-49921256D02*
X75542887Y-47417715D01*
X75045420Y-52352479D02*
X75416468Y-49921256D01*
X74442051Y-54699072D02*
X75045420Y-52352479D01*
X73618665Y-56948733D02*
X74442051Y-54699072D01*
X72587569Y-59089148D02*
X73618665Y-56948733D01*
X71361079Y-61108014D02*
X72587569Y-59089148D01*
X69951498Y-62993021D02*
X71361079Y-61108014D01*
X68371132Y-64731860D02*
X69951498Y-62993021D01*
X66632293Y-66312225D02*
X68371132Y-64731860D01*
X64747286Y-67721807D02*
X66632293Y-66312225D01*
X62728423Y-68948297D02*
X64747286Y-67721807D01*
X60588005Y-69979390D02*
X62728423Y-68948297D01*
X58338347Y-70802773D02*
X60588005Y-69979390D01*
X55991751Y-71406145D02*
X58338347Y-70802773D01*
X53560530Y-71777193D02*
X55991751Y-71406145D01*
X51056989Y-71903612D02*
X53560530Y-71777193D01*
X48553448Y-71777193D02*
X51056989Y-71903612D01*
X46122227Y-71406145D02*
X48553448Y-71777193D01*
X43775632Y-70802776D02*
X46122227Y-71406145D01*
X41525973Y-69979390D02*
X43775632Y-70802776D01*
X39385557Y-68948294D02*
X41525973Y-69979390D01*
X37366691Y-67721804D02*
X39385557Y-68948294D01*
X35481684Y-66312225D02*
X37366691Y-67721804D01*
X33742845Y-64731860D02*
X35481684Y-66312225D01*
X32162480Y-62993021D02*
X33742845Y-64731860D01*
X30752898Y-61108014D02*
X32162480Y-62993021D01*
X29526407Y-59089148D02*
X30752898Y-61108014D01*
X28495315Y-56948730D02*
X29526407Y-59089148D01*
X27671929Y-54699072D02*
X28495315Y-56948730D01*
X27068558Y-52352479D02*
X27671929Y-54699072D01*
X26697509Y-49921256D02*
X27068558Y-52352479D01*
X26571091Y-47417715D02*
X26697509Y-49921256D01*
X26571091Y-47417715D02*
X26571091Y-47417715D01*
X26697509Y-44914174D02*
X26571091Y-47417715D01*
X27068558Y-42482953D02*
X26697509Y-44914174D01*
X27671929Y-40136358D02*
X27068558Y-42482953D01*
X28495314Y-37886699D02*
X27671929Y-40136358D01*
X29526407Y-35746282D02*
X28495314Y-37886699D01*
X30752898Y-33727417D02*
X29526407Y-35746282D01*
X32162480Y-31842411D02*
X30752898Y-33727417D01*
X33742844Y-30103571D02*
X32162480Y-31842411D01*
X35481684Y-28523206D02*
X33742844Y-30103571D01*
X37366691Y-27113624D02*
X35481684Y-28523206D01*
X39385556Y-25887133D02*
X37366691Y-27113624D01*
X41525973Y-24856041D02*
X39385556Y-25887133D01*
X43775632Y-24032655D02*
X41525973Y-24856041D01*
X46122226Y-23429284D02*
X43775632Y-24032655D01*
X48553448Y-23058235D02*
X46122226Y-23429284D01*
X51056989Y-22931817D02*
X48553448Y-23058235D01*
X53560530Y-23058236D02*
X51056989Y-22931817D01*
X55991751Y-23429284D02*
X53560530Y-23058236D01*
X58338347Y-24032655D02*
X55991751Y-23429284D01*
X60588005Y-24856041D02*
X58338347Y-24032655D01*
X62728423Y-25887133D02*
X60588005Y-24856041D01*
X64747289Y-27113624D02*
X62728423Y-25887133D01*
X66632293Y-28523206D02*
X64747289Y-27113624D01*
X68371135Y-30103571D02*
X66632293Y-28523206D01*
X69951498Y-31842411D02*
X68371135Y-30103571D01*
X71361079Y-33727417D02*
X69951498Y-31842411D01*
X72587572Y-35746282D02*
X71361079Y-33727417D01*
X73618665Y-37886699D02*
X72587572Y-35746282D01*
X74442048Y-40136358D02*
X73618665Y-37886699D01*
X75045420Y-42482953D02*
X74442048Y-40136358D01*
X75416468Y-44914174D02*
X75045420Y-42482953D01*
X75542887Y-47417715D02*
X75416468Y-44914174D01*
X75416468Y-49921256D02*
X75542887Y-47417715D01*
X75045420Y-52352479D02*
X75416468Y-49921256D01*
X74442051Y-54699072D02*
X75045420Y-52352479D01*
X73618665Y-56948733D02*
X74442051Y-54699072D01*
X72587569Y-59089148D02*
X73618665Y-56948733D01*
X71361079Y-61108014D02*
X72587569Y-59089148D01*
X69951498Y-62993021D02*
X71361079Y-61108014D01*
X68371132Y-64731860D02*
X69951498Y-62993021D01*
X66632293Y-66312225D02*
X68371132Y-64731860D01*
X64747286Y-67721807D02*
X66632293Y-66312225D01*
X62728423Y-68948297D02*
X64747286Y-67721807D01*
X60588005Y-69979390D02*
X62728423Y-68948297D01*
X58338347Y-70802773D02*
X60588005Y-69979390D01*
X55991751Y-71406145D02*
X58338347Y-70802773D01*
X53560530Y-71777193D02*
X55991751Y-71406145D01*
X51056989Y-71903612D02*
X53560530Y-71777193D01*
X48553448Y-71777193D02*
X51056989Y-71903612D01*
X46122227Y-71406145D02*
X48553448Y-71777193D01*
X43775632Y-70802776D02*
X46122227Y-71406145D01*
X41525973Y-69979390D02*
X43775632Y-70802776D01*
X39385557Y-68948294D02*
X41525973Y-69979390D01*
X37366691Y-67721804D02*
X39385557Y-68948294D01*
X35481684Y-66312225D02*
X37366691Y-67721804D01*
X33742845Y-64731860D02*
X35481684Y-66312225D01*
X32162480Y-62993021D02*
X33742845Y-64731860D01*
X30752898Y-61108014D02*
X32162480Y-62993021D01*
X29526407Y-59089148D02*
X30752898Y-61108014D01*
X28495315Y-56948730D02*
X29526407Y-59089148D01*
X27671929Y-54699072D02*
X28495315Y-56948730D01*
X27068558Y-52352479D02*
X27671929Y-54699072D01*
X26697509Y-49921256D02*
X27068558Y-52352479D01*
X26571091Y-47417715D02*
X26697509Y-49921256D01*
X-9Y24485885D02*
X-9Y24485885D01*
X-9Y24485885D02*
X-9Y24485885D01*
X-9Y24485885D02*
X-9Y24485885D01*
X-9Y24485885D02*
X-9Y24485885D01*
X-9Y24485885D02*
X-9Y24485885D01*
M02*
