  0
SECTION
  2
HEADER
  9
$ACADVER
  1
AC1014
  9
$HANDSEED
  5
FFFF
  9
$MEASUREMENT
 70
     1
  0
ENDSEC
  0
SECTION
  2
TABLES
  0
TABLE
  2
VPORT
  5
8
330
0
100
AcDbSymbolTable
 70
     4
  0
VPORT
  5
2E
330
8
100
AcDbSymbolTableRecord
100
AcDbViewportTableRecord
  2
*ACTIVE
 70
     0
 10
0.0
 20
0.0
 11
1.0
 21
1.0
 12
210.0
 22
148.5
 13
0.0
 23
0.0
 14
10.0
 24
10.0
 15
10.0
 25
10.0
 16
0.0
 26
0.0
 36
1.0
 17
0.0
 27
0.0
 37
0.0
 40
341.0
 41
1.24
 42
50.0
 43
0.0
 44
0.0
 50
0.0
 51
0.0
 71
     0
 72
   100
 73
     1
 74
     3
 75
     0
 76
     0
 77
     0
 78
     0
  0
ENDTAB
  0
TABLE
  2
LTYPE
  5
5
330
0
100
AcDbSymbolTable
 70
     1
  0
LTYPE
  5
14
330
5
100
AcDbSymbolTableRecord
100
AcDbLinetypeTableRecord
  2
BYBLOCK
 70
     0
  3

 72
    65
 73
     0
 40
0.0
  0
LTYPE
  5
15
330
5
100
AcDbSymbolTableRecord
100
AcDbLinetypeTableRecord
  2
BYLAYER
 70
     0
  3

 72
    65
 73
     0
 40
0.0
  0
LTYPE
  5
16
330
5
100
AcDbSymbolTableRecord
100
AcDbLinetypeTableRecord
  2
CONTINUOUS
 70
     0
  3
Solid line
 72
    65
 73
     0
 40
0.0
  0
ENDTAB
  0
TABLE
  2
LAYER
  5
2
100
AcDbSymbolTable
 70
6
  0
LAYER
  5
50
100
AcDbSymbolTableRecord
100
AcDbLayerTableRecord
  2
0
 70
0
  6
CONTINUOUS
  0
LAYER
  5
51
100
AcDbSymbolTableRecord
100
AcDbLayerTableRecord
  2
Cuts
 70
0
  6
CONTINUOUS
  0
LAYER
  5
52
100
AcDbSymbolTableRecord
100
AcDbLayerTableRecord
  2
B.Cu
 70
0
  6
CONTINUOUS
  0
LAYER
  5
53
100
AcDbSymbolTableRecord
100
AcDbLayerTableRecord
  2
B.Mask
 70
0
  6
CONTINUOUS
  0
LAYER
  5
54
100
AcDbSymbolTableRecord
100
AcDbLayerTableRecord
  2
F.Cu
 70
0
  6
CONTINUOUS
  0
LAYER
  5
55
100
AcDbSymbolTableRecord
100
AcDbLayerTableRecord
  2
F.Mask
 70
0
  6
CONTINUOUS
  0
ENDTAB
  0
TABLE
  2
STYLE
  5
3
330
0
100
AcDbSymbolTable
 70
     1
  0
STYLE
  5
11
330
3
100
AcDbSymbolTableRecord
100
AcDbTextStyleTableRecord
  2
STANDARD
 70
     0
 40
0.0
 41
1.0
 50
0.0
 71
     0
 42
2.5
  3
txt
  4

  0
ENDTAB
  0
TABLE
  2
VIEW
  5
6
330
0
100
AcDbSymbolTable
 70
     0
  0
ENDTAB
  0
TABLE
  2
UCS
  5
7
330
0
100
AcDbSymbolTable
 70
     0
  0
ENDTAB
  0
TABLE
  2
APPID
  5
9
330
0
100
AcDbSymbolTable
 70
     2
  0
APPID
  5
12
330
9
100
AcDbSymbolTableRecord
100
AcDbRegAppTableRecord
  2
ACAD
 70
     0
  0
ENDTAB
  0
TABLE
  2
DIMSTYLE
  5
A
330
0
100
AcDbSymbolTable
 70
     1
  0
DIMSTYLE
105
27
330
A
100
AcDbSymbolTableRecord
100
AcDbDimStyleTableRecord
  2
ISO-25
 70
     0
  3

  4

  5

  6

  7

 40
1.0
 41
2.5
 42
0.625
 43
3.75
 44
1.25
 45
0.0
 46
0.0
 47
0.0
 48
0.0
140
2.5
141
2.5
142
0.0
143
0.03937007874016
144
1.0
145
0.0
146
1.0
147
0.625
 71
     0
 72
     0
 73
     0
 74
     0
 75
     0
 76
     0
 77
     1
 78
     8
170
     0
171
     3
172
     1
173
     0
174
     0
175
     0
176
     0
177
     0
178
     0
270
     2
271
     2
272
     2
273
     2
274
     3
340
11
275
     0
280
     0
281
     0
282
     0
283
     0
284
     8
285
     0
286
     0
287
     3
288
     0
  0
ENDTAB
  0
TABLE
  2
BLOCK_RECORD
  5
1
330
0
100
AcDbSymbolTable
 70
     1
  0
BLOCK_RECORD
  5
1F
330
1
100
AcDbSymbolTableRecord
100
AcDbBlockTableRecord
  2
*MODEL_SPACE
  0
BLOCK_RECORD
  5
1B
330
1
100
AcDbSymbolTableRecord
100
AcDbBlockTableRecord
  2
*PAPER_SPACE
  0
ENDTAB
  0
ENDSEC
  0
SECTION
  2
BLOCKS
  0
BLOCK
  5
20
330
1F
100
AcDbEntity
  8
0
100
AcDbBlockBegin
  2
*MODEL_SPACE
 70
     0
 10
0.0
 20
0.0
 30
0.0
  3
*MODEL_SPACE
  1

  0
ENDBLK
  5
21
330
1F
100
AcDbEntity
  8
0
100
AcDbBlockEnd
  0
BLOCK
  5
1C
330
1B
100
AcDbEntity
 67
     1
  8
0
100
AcDbBlockBegin
  2
*PAPER_SPACE
  1

  0
ENDBLK
  5
1D
330
1B
100
AcDbEntity
 67
     1
  8
0
100
AcDbBlockEnd
  0
ENDSEC
  0
SECTION
  2
ENTITIES
  0
LWPOLYLINE
  5
100
100
AcDbEntity
  8
Cuts
 62
7
100
AcDbPolyline
 90
65
 70
1
 10
-0.000009
 20
24.485885
 30
0.0
 10
0.126409
 20
21.982344
 30
0.0
 10
0.497458
 20
19.551121
 30
0.0
 10
1.100829
 20
17.204528
 30
0.0
 10
1.924215
 20
14.954870
 30
0.0
 10
2.955307
 20
12.814452
 30
0.0
 10
4.181798
 20
10.795586
 30
0.0
 10
5.591380
 20
8.910579
 30
0.0
 10
7.171745
 20
7.171740
 30
0.0
 10
8.910584
 20
5.591375
 30
0.0
 10
10.795591
 20
4.181796
 30
0.0
 10
12.814457
 20
2.955306
 30
0.0
 10
14.954873
 20
1.924210
 30
0.0
 10
17.204532
 20
1.100824
 30
0.0
 10
19.551127
 20
0.497455
 30
0.0
 10
21.982348
 20
0.126407
 30
0.0
 10
24.485889
 20
-0.000012
 30
0.0
 10
26.989430
 20
0.126407
 30
0.0
 10
29.420651
 20
0.497455
 30
0.0
 10
31.767247
 20
1.100827
 30
0.0
 10
34.016905
 20
1.924210
 30
0.0
 10
36.157323
 20
2.955303
 30
0.0
 10
38.176186
 20
4.181793
 30
0.0
 10
40.061193
 20
5.591375
 30
0.0
 10
41.800032
 20
7.171740
 30
0.0
 10
43.380398
 20
8.910579
 30
0.0
 10
44.789979
 20
10.795586
 30
0.0
 10
46.016469
 20
12.814452
 30
0.0
 10
47.047565
 20
14.954867
 30
0.0
 10
47.870951
 20
17.204528
 30
0.0
 10
48.474320
 20
19.551121
 30
0.0
 10
48.845368
 20
21.982344
 30
0.0
 10
48.971787
 20
24.485885
 30
0.0
 10
48.845368
 20
26.989426
 30
0.0
 10
48.474320
 20
29.420647
 30
0.0
 10
47.870948
 20
31.767242
 30
0.0
 10
47.047565
 20
34.016901
 30
0.0
 10
46.016472
 20
36.157318
 30
0.0
 10
44.789979
 20
38.176183
 30
0.0
 10
43.380398
 20
40.061189
 30
0.0
 10
41.800035
 20
41.800029
 30
0.0
 10
40.061193
 20
43.380394
 30
0.0
 10
38.176189
 20
44.789976
 30
0.0
 10
36.157323
 20
46.016467
 30
0.0
 10
34.016905
 20
47.047559
 30
0.0
 10
31.767247
 20
47.870945
 30
0.0
 10
29.420651
 20
48.474316
 30
0.0
 10
26.989430
 20
48.845364
 30
0.0
 10
24.485889
 20
48.971783
 30
0.0
 10
21.982348
 20
48.845365
 30
0.0
 10
19.551126
 20
48.474316
 30
0.0
 10
17.204532
 20
47.870945
 30
0.0
 10
14.954873
 20
47.047559
 30
0.0
 10
12.814456
 20
46.016467
 30
0.0
 10
10.795591
 20
44.789976
 30
0.0
 10
8.910584
 20
43.380394
 30
0.0
 10
7.171744
 20
41.800029
 30
0.0
 10
5.591380
 20
40.061189
 30
0.0
 10
4.181798
 20
38.176183
 30
0.0
 10
2.955307
 20
36.157318
 30
0.0
 10
1.924214
 20
34.016901
 30
0.0
 10
1.100829
 20
31.767242
 30
0.0
 10
0.497458
 20
29.420647
 30
0.0
 10
0.126409
 20
26.989426
 30
0.0
 10
-0.000009
 20
24.485885
 30
0.0
  0
ENDSEC
  0
SECTION
  2
OBJECTS
  0
DICTIONARY
  5
C
330
0
100
AcDbDictionary
  3
ACAD_GROUP
350
D
  3
ACAD_MLINESTYLE
350
17
  0
DICTIONARY
  5
D
330
C
100
AcDbDictionary
  0
DICTIONARY
  5
1A
330
C
100
AcDbDictionary
  0
DICTIONARY
  5
17
330
C
100
AcDbDictionary
  3
STANDARD
350
18
  0
DICTIONARY
  5
19
330
C
100
AcDbDictionary
  0
ENDSEC
  0
EOF
